<?xml version="1.0" encoding="UTF-8" standalone="no"?>
<!-- Created with Inkscape (http://www.inkscape.org/) -->

<svg
   xmlns:dc="http://purl.org/dc/elements/1.1/"
   xmlns:cc="http://creativecommons.org/ns#"
   xmlns:rdf="http://www.w3.org/1999/02/22-rdf-syntax-ns#"
   xmlns:svg="http://www.w3.org/2000/svg"
   xmlns="http://www.w3.org/2000/svg"
   xmlns:sodipodi="http://sodipodi.sourceforge.net/DTD/sodipodi-0.dtd"
   xmlns:inkscape="http://www.inkscape.org/namespaces/inkscape"
   width="210mm"
   height="297mm"
   viewBox="0 0 744.09448819 1052.3622047"
   id="svg2"
   version="1.1"
   inkscape:version="0.91 r13725"
   sodipodi:docname="mapa_py.svg">
  <defs
     id="defs4" />
  <sodipodi:namedview
     id="base"
     pagecolor="#ffffff"
     bordercolor="#666666"
     borderopacity="1.0"
     inkscape:pageopacity="0.0"
     inkscape:pageshadow="2"
     inkscape:zoom="0.35"
     inkscape:cx="109.67956"
     inkscape:cy="611.98284"
     inkscape:document-units="px"
     inkscape:current-layer="layer1"
     showgrid="false"
     inkscape:window-width="1366"
     inkscape:window-height="705"
     inkscape:window-x="-8"
     inkscape:window-y="-8"
     inkscape:window-maximized="1" />
  <metadata
     id="metadata7">
    <rdf:RDF>
      <cc:Work
         rdf:about="">
        <dc:format>image/svg+xml</dc:format>
        <dc:type
           rdf:resource="http://purl.org/dc/dcmitype/StillImage" />
        <dc:title></dc:title>
      </cc:Work>
    </rdf:RDF>
  </metadata>
  <g
     inkscape:label="Capa 1"
     inkscape:groupmode="layer"
     id="layer1">
    <path
       style="fill:#000080"
       d="m 703.91198,1208.1858 c -0.3467,-0.8593 -0.6305,-0.1562 -0.6305,1.5625 0,1.7188 0.2838,2.4219 0.6305,1.5625 0.3468,-0.8593 0.3468,-2.2656 0,-3.125 z"
       id="path4459"
       inkscape:connector-curvature="0" />
    <path
       style="fill:#000080"
       d="m 706.83418,1202.8733 c 0.8558,-1.0312 1.2748,-1.875 0.9311,-1.875 -0.3438,0 -1.3253,0.8438 -2.1811,1.875 -0.8559,1.0313 -1.2749,1.875 -0.9311,1.875 0.3437,0 1.3252,-0.8437 2.1811,-1.875 z"
       id="path4457"
       inkscape:connector-curvature="0" />
    <path
       style="fill:#000080"
       d="m 718.63708,1197.365 c 0.3853,-0.6234 -0.4253,-0.8392 -1.8012,-0.4793 -2.9187,0.7633 -3.2877,1.6126 -0.7005,1.6126 0.9907,0 2.1164,-0.51 2.5017,-1.1333 z"
       id="path4455"
       inkscape:connector-curvature="0" />
    <path
       style="fill:#000080"
       d="m 743.83938,1180.0868 c -0.4154,-0.4153 -0.7108,0.323 -0.6565,1.6407 0.06,1.4562 0.3561,1.7523 0.7552,0.7552 0.361,-0.9024 0.3166,-1.9805 -0.099,-2.3959 z"
       id="path4453"
       inkscape:connector-curvature="0" />
    <path
       style="fill:#000080"
       d="m 762.14668,1150.1705 c -0.8594,-0.3468 -2.2657,-0.3468 -3.125,0 -0.8594,0.3467 -0.1563,0.6305 1.5625,0.6305 1.7187,0 2.4218,-0.2838 1.5625,-0.6305 z"
       id="path4451"
       inkscape:connector-curvature="0" />
    <path
       style="fill:#000080"
       d="m 790.89668,1122.6705 c -0.8594,-0.3468 -2.2657,-0.3468 -3.125,0 -0.8594,0.3468 -0.1563,0.6305 1.5625,0.6305 1.7187,0 2.4218,-0.2837 1.5625,-0.6305 z"
       id="path4449"
       inkscape:connector-curvature="0" />
    <path
       style="fill:#000080"
       d="m 659.08058,1076.9289 c 0.7164,-0.8633 1.6987,-3.1479 2.1829,-5.0771 0.4842,-1.9292 2.4982,-4.7037 4.4755,-6.1656 2.86,-2.1144 3.5952,-3.6265 3.5952,-7.3941 0,-5.5995 2.7064,-7.833 11.1395,-9.1926 3.6189,-0.5835 6.6266,-2.072 8.75,-4.3302 4.7707,-5.0739 8.7411,-5.5511 15.6447,-1.8804 3.2164,1.7102 7.5113,3.1094 9.5441,3.1094 2.2119,0 4.5697,1.0435 5.8714,2.5985 3.0479,3.6408 7.509,5.7672 14.2064,6.7716 5.4323,0.8146 5.9859,0.6172 10.073,-3.5911 3.4604,-3.5631 4.6303,-6.1115 5.8536,-12.7503 1.3155,-7.1398 1.2595,-8.7083 -0.402,-11.244 -2.5907,-3.954 -2.4825,-4.6253 1.5068,-9.3413 6.3961,-7.5614 7.8058,-8.6934 10.8264,-8.6934 1.9124,0 4.1798,-1.4846 6.2043,-4.0625 5.889,-7.49835 14.5299,-14.68735 17.654,-14.68735 1.192,0 4.8613,0.9569 8.1541,2.1264 7.1177,2.528 9.9737,1.1251 9.9737,-4.8989 0,-5.7588 3.8873,-9.92035 14.2388,-15.24333 9.2637,-4.76357 9.5112,-5.01167 9.5112,-9.53445 0,-6.11176 2.3093,-7.81099 11.5208,-8.47729 l 7.5604,-0.54688 -0.7516,-8.04894 -0.7517,-8.04893 4.9156,-4.60134 c 3.6356,-3.40316 5.2882,-6.22885 6.3466,-10.85135 0.787,-3.4375 2.6356,-8.68255 4.1079,-11.65568 l 2.677,-5.40567 -2.8449,-2.32092 c -1.5647,-1.27652 -5.935,-2.707 -9.7116,-3.17888 -3.7767,-0.47186 -8.7354,-1.81062 -11.0193,-2.97504 -4.4697,-2.27877 -6.368,-1.7012 -12.728,3.87275 -1.8732,1.64164 -4.5384,2.21544 -10,2.15297 -4.0954,-0.0469 -8.9364,0.49147 -10.7577,1.19628 -2.757,1.06693 -4.5359,0.65369 -10.625,-2.46817 -8.0048,-4.10408 -10.7375,-6.79939 -9.9127,-9.77706 2.233,-8.06132 2.175,-10.06558 -0.291,-10.06558 -1.5333,0 -2.7382,1.09323 -3.1903,2.89449 -1.0773,4.2924 -4.3992,7.59766 -12.7139,12.65035 -4.1006,2.49185 -10.3983,7.01919 -13.9948,10.06075 -3.5966,3.04156 -8.9404,6.21265 -11.875,7.04687 -2.9347,0.83423 -6.7729,2.82869 -8.5292,4.43215 -1.7564,1.60347 -3.7251,2.91583 -4.375,2.91637 -1.7145,10e-4 -9.5317,7.36476 -13.6012,12.81152 -3.1647,4.23589 -4.0599,4.68795 -9.2913,4.69218 -7.8731,0.006 -12.6777,3.23417 -19.8402,13.32911 -8.3107,11.71314 -9.8145,13.0917 -13.3208,12.21166 -1.8237,-0.4577 -6.2526,0.57672 -11.5435,2.69608 -4.7216,1.89128 -11.9596,3.76377 -16.0846,4.16108 l -7.5,0.72239 0.1086,5.62496 c 0.06,3.09385 0.5651,12.19475 1.123,20.22425 l 1.0142,14.59895 -3.4188,4.1509 c -1.8804,2.283 -5.2969,5.5917 -7.5923,7.3528 -3.0574,2.3457 -3.8692,3.6829 -3.0357,5 1.6912,2.673 1.4129,15.396 -0.3866,17.6682 -0.8594,1.0852 -4.6562,2.9564 -8.4375,4.1583 -8.4195,2.6762 -13.75,5.2968 -13.75,6.7599 0,0.6045 2.6229,2.6362 5.8285,4.5148 5.5037,3.2254 5.9192,3.2918 7.455,1.1915 0.8945,-1.2233 1.7972,-2.7367 2.006,-3.363 0.5694,-1.7083 9.6788,-3.4505 13.7665,-2.633 1.9713,0.3943 4.537,2.1208 5.7016,3.8367 3.7952,5.5918 14.3167,16.5396 15.8957,16.5396 0.8473,0 2.1268,-0.7062 2.8432,-1.5694 z"
       id="7"
       inkscape:connector-curvature="0"
       inkscape:label="Itapua" />
    <path
       style="fill:#000080"
       d="m 585.58418,1059.2121 c 7.2187,-1.8906 16.2187,-4.9953 20,-6.8994 3.7812,-1.904 9.5551,-4.1791 12.8307,-5.0557 7.9227,-2.1201 8.3841,-3.7998 5.1523,-18.7591 -0.549,-2.5414 0.2187,-3.8035 4.1084,-6.754 2.631,-1.9957 6.114,-5.2564 7.74,-7.246 2.9171,-3.5694 2.9378,-3.7955 1.5591,-16.99585 -0.7686,-7.3582 -1.3958,-16.541 -1.394,-20.40635 l 0,-7.02774 -4.7891,-0.76581 c -5.4215,-0.86694 -7.9631,-3.26265 -10.0495,-9.47255 -1.9353,-5.75944 -4.9135,-8.83116 -8.5626,-8.83116 -4.386,0 -7.8491,-2.22548 -7.8491,-5.04397 0,-4.44356 -14.2061,-18.89066 -22.5,-22.88177 l -5.625,-2.70679 -2.901,2.50377 c -10.2109,8.81261 -16.142,15.53126 -16.8541,19.09196 -0.6282,3.14064 -1.9193,4.4524 -6.3851,6.48676 -7.7849,3.54646 -12.192,3.28478 -16.524,-0.98116 -1.9722,-1.94215 -6.117,-4.24773 -9.2108,-5.1235 -7.2201,-2.04384 -15.4847,-8.30158 -18.0772,-13.68756 -1.1164,-2.31949 -2.3118,-3.93539 -2.6563,-3.5909 -0.6505,0.65048 2.6237,18.03902 7.2005,38.2409 1.5297,6.75211 3.7736,13.08277 5.3168,15.00002 1.4686,1.82455 5.3005,7.30685 8.5154,12.18295 3.2148,4.8761 6.7758,9.65725 7.9132,10.62495 1.1374,0.9676 6.9268,3.1848 12.8653,4.9271 9.7147,2.8502 10.8355,3.4929 11.1781,6.4102 0.3966,3.3761 -2.8919,16.7122 -7.0392,28.5469 -4.0427,11.5362 -4.3318,13.746 -1.8029,13.7783 1.2162,0.015 6.7113,1.9142 12.2113,4.2192 5.5,2.3051 10.5625,4.0701 11.25,3.9224 0.6875,-0.1478 7.1563,-1.8155 14.375,-3.7061 z"
       id="8"
       inkscape:connector-curvature="0"
       inkscape:label="Misiones" />
    <path
       style="fill:#000080"
       d="m 534.62328,1056.8362 c 2.5653,-0.8935 5.0632,-2.0235 5.5508,-2.5112 1.2672,-1.2671 13.3178,-41.0264 12.5687,-41.4684 -0.156,-0.092 -4.7836,-1.4389 -10.2836,-2.993 -11.4934,-3.2475 -13.717,-4.9933 -21.6415,-16.99015 -3.1788,-4.8125 -7.0172,-10.2856 -8.5298,-12.1624 -1.7699,-2.19615 -3.9259,-8.65652 -6.0488,-18.12506 -1.8143,-8.0919 -4.7125,-20.6188 -6.4406,-27.83755 -5.0472,-21.08331 -5.0568,-21.25 -1.2261,-21.25 3.0537,0 8.2618,-3.778 8.2618,-5.99314 0,-0.54623 2.9254,-3.21811 6.5009,-5.9375 12.8136,-9.74558 13.8762,-11.05935 12.7357,-15.74549 -0.5621,-2.30938 -1.0422,-7.52932 -1.0668,-11.59987 -0.042,-6.94525 -0.2503,-7.45653 -3.3816,-8.30246 -1.8353,-0.49581 -6.3353,-3.99873 -10,-7.78426 -3.6648,-3.78554 -7.8683,-7.24002 -9.3413,-7.67661 -1.4729,-0.4366 -3.3962,-2.52748 -4.2739,-4.64643 l -1.5958,-3.85263 -2.2769,4.4382 c -1.2523,2.441 -2.8447,4.78909 -3.5386,5.21797 -0.6939,0.42887 -1.2617,1.83967 -1.2617,3.13511 0,1.29545 -1.2427,3.22579 -2.7616,4.28965 -2.1597,1.51269 -2.4321,2.26376 -1.25,3.44587 0.8314,0.83138 1.5116,3.66302 1.5116,6.29253 0,3.804 -0.5747,5.00209 -2.8125,5.86321 -1.5469,0.59526 -4.0588,2.78239 -5.582,4.8603 -1.5232,2.07791 -4.3357,4.08049 -6.25,4.45015 -17.3434,3.34924 -17.8548,3.50918 -17.8158,5.57153 0.022,1.15437 0.8657,3.19076 1.875,4.52528 2.5692,3.39669 2.2847,6.63748 -0.6647,7.57359 -1.5219,0.48303 -2.5,1.89129 -2.5,3.59945 0,1.54329 -1.125,5.13446 -2.5,7.98038 -1.375,2.84592 -2.5,7.15125 -2.5,9.56738 0,2.41614 -0.9705,6.42814 -2.1567,8.91557 -1.9567,4.10331 -1.9729,4.62542 -0.1744,5.6319 2.7123,1.51787 2.9917,18.50527 0.3213,19.53002 -0.9746,0.374 -2.5688,0.0188 -3.5426,-0.78944 -1.4686,-1.21881 -1.8922,-0.5498 -2.4837,3.92265 -0.3922,2.96565 -0.8539,7.62915 -1.026,10.36335 -0.2207,3.50689 -1.0493,5.34793 -2.8129,6.25 -1.375,0.7033 -2.5,2.4037 -2.5,3.77875 0,1.6608 -0.9698,2.6375 -2.8889,2.9095 -1.589,0.2252 -3.2052,1.2335 -3.5917,2.2407 -0.7862,2.0489 -9.2612,6.7248 -12.1884,6.7248 -1.388,0 -1.7221,0.9177 -1.2512,3.4375 0.8327,4.45685 -3.3241,11.23095 -7.541,12.28935 -1.9345,0.4855 -3.1638,1.6775 -3.1638,3.0678 0,1.2506 -1.2656,3.299 -2.8125,4.552 -2.4664,1.9979 -2.8424,3.5619 -3.0552,12.7087 -0.2364,10.1616 -0.1719,10.4132 2.5,9.7574 7.1855,-1.7634 16.0379,-2.2481 19.4346,-1.064 3.1032,1.0818 4.0812,0.9094 5.8352,-1.0288 3.1073,-3.4335 8.1826,-4.0897 18.6151,-2.4068 7.2537,1.1701 11.074,1.1696 17.2863,0 7.277,-1.3731 8.3507,-1.2879 12.2731,0.9737 2.3641,1.3631 6.7752,2.877 9.8024,3.3642 3.3959,0.5466 6.5847,2.052 8.3256,3.9304 1.7173,1.8531 3.1388,2.5312 3.6322,1.7328 0.4459,-0.7215 3.1682,-1.3058 6.0495,-1.2985 4.3831,0.011 5.9533,0.7569 9.6137,4.5659 5.1001,5.3072 14.633,11.6791 17.4322,11.652 1.0685,-0.01 4.0416,-0.7498 6.6069,-1.6433 z"
       id="12"
       inkscape:connector-curvature="0"
       inkscape:label="Ñeembucu" />
    <path
       style="fill:#000080"
       d="m 660.58418,964.33463 c 3.7812,-1.47827 7.2399,-3.1966 7.6859,-3.81853 0.4461,-0.62192 2.561,-0.78077 4.6999,-0.353 3.6791,0.73583 4.2593,0.27692 10.7565,-8.5086 9.3128,-12.59277 13.5233,-15.65606 21.5194,-15.65606 5.4446,0 6.5972,-0.4524 8.4823,-3.32944 5.8196,-8.8819 21.3907,-20.5742 29.643,-22.25886 1.8767,-0.38311 6.3767,-3.21439 10,-6.29172 3.6234,-3.07734 9.4182,-7.27262 12.8775,-9.32283 8.8421,-5.24055 11.5977,-8.13348 12.542,-13.16721 0.8105,-4.32034 0.9091,-4.38083 7.2451,-4.4455 l 6.4234,-0.0656 -3.125,-2.12193 c -7.5239,-5.10886 -19.9928,-18.91342 -23.198,-25.68289 -1.8519,-3.91115 -3.8586,-7.41502 -4.4595,-7.78639 -3.5481,-2.19284 2.9113,-18.30783 8.3275,-20.77562 3.7185,-1.69424 3.7264,-1.80134 0.5256,-7.05139 -3.0052,-4.92929 -5.4564,-3.9081 -6.7143,2.79728 -0.9879,5.26572 -4.5435,8.52292 -11.1083,10.17595 -3.9264,0.98866 -5.3303,2.03355 -5.878,4.375 -0.6028,2.5767 -1.5693,3.13829 -5.9533,3.45907 -4.1386,0.30282 -5.6506,1.08746 -7.2264,3.75 -1.8678,3.15576 -20.8331,14.03566 -27.6718,15.87459 -1.7955,0.48282 -3.4796,2.69341 -4.9148,6.45162 -1.508,3.9484 -4.0814,7.2174 -8.3183,10.56649 -3.3742,2.66714 -6.5063,4.84742 -6.9602,4.84506 -1.1756,-0.006 -17.8499,-6.86251 -22.3563,-9.19285 -3.6445,-1.88464 -3.954,-1.82322 -8.6245,1.7114 -2.6644,2.0164 -5.5299,3.68184 -6.3677,3.70096 -0.8378,0.0191 -1.2093,0.85295 -0.8256,1.85294 0.3838,0.99999 -0.5479,4.23436 -2.0704,7.1875 -1.5225,2.95314 -3.1716,6.21309 -3.6647,7.24434 -0.4932,1.03125 -2.3916,2.60881 -4.2188,3.50571 -1.8272,0.89689 -3.3222,2.18148 -3.3222,2.85465 0,0.67318 -1.9688,2.38554 -4.375,3.80526 -3.3684,1.98737 -4.375,3.39879 -4.375,6.13408 0,1.95401 -0.5853,3.91449 -1.3007,4.3566 -2.5649,1.58519 -7.3303,10.42439 -9.3317,17.30914 -1.1213,3.85691 -3.1665,7.80255 -4.5449,8.76806 -1.5125,1.05939 -1.9905,2.07427 -1.2055,2.55946 0.7155,0.44219 0.9731,2.44265 0.5726,4.44549 -0.6466,3.23309 -0.3266,3.72925 2.8534,4.42377 6.9086,1.50887 9.1564,3.42113 11.5436,9.82047 2.5525,6.84261 3.0041,7.23477 11.4132,9.91082 6.9975,2.22684 15.9196,1.49261 25,-2.05732 z"
       id="6"
       inkscape:connector-curvature="0"
       inkscape:label="Caazapa" />
    <path
       style="fill:#000080"
       d="m 547.56858,944.53865 c 2.9168,-1.0547 4.2344,-2.447 4.7485,-5.0174 0.429,-2.14515 3.8243,-6.57441 8.5518,-11.15601 11.8107,-11.44632 12.9359,-12.3668 15.1169,-12.3668 3.9743,0 11.6155,4.44547 19.6452,11.42919 7.9005,6.87118 8.2613,7.03816 10.8618,5.02655 1.4794,-1.1444 3.0735,-3.76824 3.5425,-5.83074 1.1991,-5.27315 7.9571,-18.55096 10.0519,-19.74961 0.9608,-0.54979 1.747,-2.68533 1.747,-4.74564 0,-2.85296 0.8921,-4.25366 3.7421,-5.87539 4.2591,-2.42355 4.5051,-3.53591 1.8906,-8.54897 -1.027,-1.96922 -1.8831,-4.70539 -1.9025,-6.08039 -0.019,-1.375 -1.1478,-4.95205 -2.5077,-7.949 -1.3599,-2.99696 -2.4725,-5.94302 -2.4725,-6.54683 0,-0.60379 2.3011,-2.55043 5.1135,-4.32587 5.8353,-3.68364 5.8571,-4.68994 0.3633,-16.79399 -1.7139,-3.77613 -3.0278,-8.55739 -2.9198,-10.625 0.3182,-6.0942 0.2345,-6.21445 -6.8113,-9.78204 -3.7148,-1.88098 -7.0575,-4.21033 -7.4282,-5.17631 -0.3707,-0.96599 -4.0479,-2.70301 -8.1716,-3.86006 -7.7052,-2.16198 -9.2759,-3.84386 -11.9948,-12.8438 -0.6568,-2.17415 -1.3978,-2.64932 -2.9516,-1.89279 -1.141,0.55556 -6.2933,0.86866 -11.4495,0.69578 -8.1439,-0.27307 -9.7294,-0.71385 -12.0732,-3.3565 l -2.6982,-3.04218 -3.2393,3.00212 c -1.7816,1.65115 -3.2393,4.13456 -3.2393,5.51868 0,1.38413 -1.7035,4.36412 -3.7855,6.62219 -2.082,2.25807 -4.6132,4.99654 -5.625,6.08546 -1.0117,1.08893 -1.8395,2.80954 -1.8395,3.82359 0,1.01405 -0.8259,2.93561 -1.8353,4.27014 -2.1419,2.83188 -2.3649,8.95932 -0.6039,16.59556 1.6686,7.23555 -1.5629,17.8939 -6.748,22.25685 -3.6187,3.04495 -3.652,3.19194 -2.8769,12.7023 0.4312,5.29194 1.1055,11.02795 1.4983,12.7467 0.6194,2.70989 -0.3666,3.93826 -7.4222,9.24739 -4.4751,3.36731 -8.4283,6.88293 -8.785,7.8125 -0.3567,0.92956 -1.3693,1.69367 -2.2503,1.69801 -0.881,0.004 -2.5657,1.70182 -3.7438,3.77217 -1.3767,2.41937 -3.4909,4.03402 -5.9172,4.51929 -4.2344,0.84688 -3.9472,2.95064 0.4029,2.95064 1.9816,0 3.6434,1.46312 5.5845,4.91686 3.8674,6.88123 8.8456,10.67965 17.9809,13.71969 4.3648,1.4525 8.562,3.73011 9.4273,5.11579 1.7719,2.83716 5.164,3.15655 11.0231,1.03787 z"
       id="9"
       inkscape:connector-curvature="0"
       inkscape:label="Paraguari" />
    <path
       style="fill:#000080"
       d="m 815.44068,898.78373 c 6.0777,-0.4554 9.2517,-1.45526 13.3063,-4.19168 6.0069,-4.054 8.2203,-4.3788 12.1936,-1.78928 1.5227,0.99237 6.3404,2.37642 10.7061,3.07567 4.3656,0.69924 8.7532,1.94835 9.7502,2.77579 1.4385,1.19386 2.2408,1.0764 3.8861,-0.56895 1.9296,-1.92959 1.9302,-2.52906 0.01,-8.64263 -1.8519,-5.89141 -3.5051,-12.02695 -5.595,-20.76467 -0.8238,-3.44405 1.205,-5.13259 6.2003,-5.1604 3.0491,-0.017 3.433,-0.47818 3.3982,-4.08164 -0.022,-2.23437 -1.1849,-10.25 -2.585,-17.8125 -3.5321,-19.07817 -3.5624,-18.2751 0.7493,-19.86617 4.2749,-1.57755 4.4215,-3.46657 1.0769,-13.88383 -1.9698,-6.13522 -1.9419,-6.43364 1.5194,-16.25 2.15,-6.09742 4.9011,-11.30136 7.0494,-13.33461 4.9082,-4.64523 10.284,-16.79288 10.141,-22.91539 -0.064,-2.75 -0.2259,-8.68514 -0.3592,-13.18919 -0.2418,-8.16871 1.3661,-14.22176 8.5335,-32.12331 l 2.6275,-6.5625 -4.1702,0 c -2.2937,0 -5.9359,0.6155 -8.0939,1.36778 -3.3168,1.15623 -4.8438,0.92198 -9.874,-1.51477 -3.2727,-1.58538 -7.4306,-2.72797 -9.2398,-2.5391 -1.8091,0.18889 -5.3935,-0.53572 -7.9652,-1.61023 -2.572,-1.07453 -7.0228,-1.95368 -9.8911,-1.95368 -4.5721,0 -6.1142,-0.83022 -12.5103,-6.73557 -6.1793,-5.70515 -8.2564,-6.86309 -13.5778,-7.56899 -8.3822,-1.11194 -12.7079,-3.52703 -14.6304,-8.1684 -1.6784,-4.05195 -2.3086,-4.11502 -10.3403,-1.03472 -5.0707,1.94474 -8.6072,11.47677 -8.4897,22.88268 0.021,2.0625 -0.8674,6.49357 -1.9747,9.84683 -2.0712,6.27234 -1.7748,14.91998 0.8468,24.70367 1.0317,3.85054 1.8822,4.67488 5.5288,5.35899 2.5933,0.4865 5.3159,2.15894 6.8365,4.19949 4.2081,5.64719 6.5031,7.62424 13.3092,11.4654 5.3326,3.00955 6.9171,4.72148 8.7064,9.40674 1.2031,3.15019 2.807,6.13066 3.5641,6.62325 2.5356,1.64956 7.0017,11.34877 7.0017,15.20578 0,3.349 -0.4293,3.81485 -3.5161,3.81485 -2.2283,0 -4.7576,-1.29584 -6.9056,-3.5378 -3.0808,-3.21565 -4.0032,-3.48691 -10.1294,-2.97888 -6.3955,0.53037 -6.971,0.32789 -11.2611,-3.9622 -4.2104,-4.21038 -9.4378,-6.05537 -9.4378,-3.33101 0,1.86018 -10.6858,16.54821 -14.8366,20.39339 -2.0534,1.90219 -4.3755,5.40409 -5.1602,7.78201 -1.2858,3.89585 -1.1092,4.74001 1.7849,8.53448 4.3461,5.69798 4.3397,11.63975 -0.015,13.62371 -1.7745,0.80855 -4.489,3.9544 -6.0321,6.99076 l -2.8057,5.52066 4.4762,8.91994 c 4.7666,9.4986 14.5989,20.52751 23.5257,26.38893 5.8221,3.82285 6.5497,5.89765 2.952,8.41758 -2.0881,1.46257 -5.1135,9.14403 -5.1326,13.03175 -0.01,1.97468 12.7004,7.97154 14.9931,7.07402 1.0312,-0.4037 5.4667,-1.00312 9.8565,-1.33205 z"
       id="10"
       inkscape:connector-curvature="0"
       inkscape:label="Alto Parana" />
    <path
       style="fill:#000080"
       d="m 636.91628,887.20447 c 1.3341,-0.71396 2.4179,-2.60648 2.4179,-4.22195 0,-1.61038 0.8437,-3.62822 1.875,-4.48408 1.0312,-0.85586 1.875,-3.18866 1.875,-5.184 0,-2.59968 0.7971,-3.9428 2.8125,-4.73906 1.5468,-0.61115 4.7499,-2.56598 7.1178,-4.34406 5.3345,-4.00567 7.7427,-4.03662 15.6749,-0.2014 3.4484,1.66731 8.6136,3.98163 11.4783,5.14295 5.1898,2.10388 5.2244,2.0993 9.651,-1.27705 2.5345,-1.93318 5.7378,-6.21772 7.4584,-9.97582 2.6078,-5.69617 3.7541,-6.84607 8.4739,-8.5003 3.002,-1.05216 9.3957,-4.09255 14.2082,-6.75642 6.7946,-3.76105 9.2526,-5.90955 10.9991,-9.6142 1.7196,-3.64734 2.7498,-4.56429 4.375,-3.89389 5.4614,2.25279 6.5009,2.16089 6.5009,-0.57475 0,-2.85095 6.1626,-6.332 11.2098,-6.332 1.3971,0 2.5402,-0.5625 2.5402,-1.25 0,-0.6875 -1.3798,-1.25 -3.0662,-1.25 -1.6864,0 -4.515,-0.66014 -6.2859,-1.46697 -2.6035,-1.18624 -4.5749,-1.03978 -10.3011,0.76526 -9.3113,2.93512 -23.0783,1.80901 -38.6011,-3.1575 -18.3499,-5.87101 -34.146,-4.92035 -43.6425,2.62652 -2.5834,2.05298 -5.7985,3.73269 -7.1447,3.73269 -1.3463,0 -3.9408,0.7723 -5.7657,1.71621 -1.8248,0.94392 -5.3531,2.58699 -7.8407,3.65129 -6.5019,2.78175 -6.8078,6.49189 -1.6005,19.40872 2.3366,5.79588 4.2484,11.338 4.2484,12.31583 0,2.13672 -6.1831,7.81284 -8.5713,7.86845 -1.1359,0.0265 -1.3861,0.76204 -0.7574,2.227 0.5163,1.20312 1.7609,5.28125 2.7658,9.0625 1.6699,6.28396 3.4994,10 4.9231,10 0.3048,0 1.6421,-0.58229 2.9719,-1.29397 z"
       id="4"
       inkscape:connector-curvature="0"
       inkscape:label="Guaira" />
    <path
       style="fill:#000080"
       d="m 530.70468,860.22823 c 3.5822,-4.31626 4.784,-10.90718 4.0701,-22.32023 -0.5603,-8.95661 -0.2934,-12.05816 1.294,-15.03456 1.1,-2.0625 2.0059,-4.3125 2.0131,-5 0.01,-0.6875 2.5419,-4.03891 5.6327,-7.44758 3.0907,-3.40867 5.6196,-7.24881 5.6196,-8.53366 0,-2.4266 5.6097,-8.80532 8.6287,-9.81169 2.5532,-0.85106 -0.5294,-6.08207 -3.5842,-6.08207 -2.426,0 -10.0445,-9.89409 -10.0445,-13.04479 0,-1.93594 -1.6185,-5.0093 -7.488,-14.21936 -3.7434,-5.874 -4.5999,-6.54659 -7.4315,-5.8359 -1.7602,0.44179 -3.2757,0.89816 -3.3678,1.01415 -0.092,0.116 -1.6865,3.30465 -3.5432,7.0859 -1.8568,3.78125 -3.8655,7.80935 -4.4639,8.95134 -0.7497,1.4308 -0.5233,2.29301 0.7282,2.77327 3.62,1.38914 1.3179,12.02539 -2.6028,12.02539 -2.7519,0 -2.2286,1.71319 1.816,5.94549 3.1751,3.32245 3.5684,4.5191 3.0394,9.24789 -1.0069,9.00017 -3.9367,15.72291 -7.2102,16.54451 -2.1728,0.54536 -3.6251,2.64367 -5.7357,8.28749 -1.5544,4.15648 -4.2534,8.67986 -5.9977,10.05193 -3.1272,2.45987 -3.1424,2.55582 -1.084,6.87221 1.1481,2.40764 3.0727,4.74459 4.2768,5.19323 2.9094,1.08396 10.4785,7.81913 15.0512,13.39265 2.0976,2.55685 8.2428,2.52394 10.3837,-0.0556 z"
       id="11"
       inkscape:connector-curvature="0"
       inkscape:label="Central" />
    <path
       style="fill:#000080"
       d="m 641.14668,818.32864 c 0.6531,-0.59411 2.6644,-1.0802 4.4696,-1.0802 1.849,0 4.5137,-1.31103 6.1028,-3.00249 3.6113,-3.84411 11.8731,-6.00273 24.4901,-6.39876 8.3739,-0.26285 11.8293,0.30466 21.25,3.49014 14.6655,4.95892 28.9481,5.94311 39.571,2.72677 6.9712,-2.11071 7.6947,-2.12386 10.9533,-0.19897 3.9249,2.3185 11.3444,2.31151 11.3482,-0.0113 0,-0.83546 1.6095,-3.36671 3.5736,-5.625 1.9642,-2.2583 4.268,-6.24618 5.1196,-8.86195 0.8516,-2.61576 3.6416,-6.83451 6.2001,-9.375 5.0994,-5.06303 13.8592,-17.04233 13.8592,-18.9524 0,-0.66173 1.1525,-1.81995 2.5612,-2.57385 3.6206,-1.93768 10.3111,0.50377 14.2683,5.20671 3.0303,3.60124 3.4505,3.72095 10.1326,2.88608 6.8093,-0.85077 7.055,-0.77303 10.5787,3.34698 5.0375,5.88989 4.5915,3.00049 -0.8005,-5.18551 -2.4802,-3.76558 -5.3181,-8.86652 -6.3062,-11.33546 -1.2177,-3.04226 -3.4907,-5.42648 -7.0529,-7.39804 -7.4707,-4.13467 -11.0273,-7.06679 -13.496,-11.12615 -1.4654,-2.40976 -3.5857,-3.80884 -6.6409,-4.38199 -5.6646,-1.06268 -7.4203,-4.3516 -9.398,-17.60486 -1.3398,-8.97855 -1.2486,-10.72786 0.8925,-17.12577 1.564,-4.6737 1.9613,-7.54908 1.1545,-8.35588 -0.8068,-0.80681 -0.5269,-2.98747 0.8133,-6.33702 1.1238,-2.8088 2.0434,-7.03109 2.0434,-9.38285 0,-2.35177 0.5625,-4.62358 1.25,-5.04848 0.6875,-0.4249 1.25,-1.30185 1.25,-1.94877 0,-2.00653 -7.3668,-1.29465 -12.2373,1.18252 -2.5508,1.29733 -9.8519,4.10279 -16.2247,6.23438 -11.8621,3.96762 -15.2197,6.49586 -22.163,16.68841 -2.3038,3.38191 -6.5035,5.69907 -32.6206,17.99841 -2.1289,1.00254 -7.0003,4.61218 -10.8254,8.02143 -3.8251,3.40923 -7.8037,6.19862 -8.8414,6.19862 -1.1627,0 -2.7121,-2.48509 -4.0377,-6.47609 -1.1831,-3.56185 -3.2973,-8.41879 -4.6982,-10.79317 -2.5413,-4.30728 -2.5497,-4.31032 -3.6654,-1.33641 -0.615,1.63937 -1.8419,5.78268 -2.7264,9.20737 -1.7489,6.77156 -0.797,6.20033 -16.0796,9.6493 -5.1345,1.15875 -6.2555,1.97716 -7.8125,5.7036 -0.9998,2.39289 -1.8178,6.23939 -1.8178,8.54776 0,2.30838 -0.7632,6.3178 -1.6959,8.90984 -3.51,9.75412 -4.5541,13.74971 -4.5541,17.42751 0,8.90559 -4.5913,13.91983 -24.1225,26.3445 -6.3428,4.03495 -6.3788,4.09472 -6.0243,10 0.4138,6.89365 2.2111,9.28293 10.592,14.08084 l 6.0703,3.47508 7.0547,-3.16487 c 3.8801,-1.74067 7.5891,-3.65096 8.2423,-4.24506 z"
       id="5"
       inkscape:connector-curvature="0"
       inkscape:label="Caaguazu" />
    <path
       style="fill:#000080"
       d="m 605.20278,806.42667 -0.2436,-7.07177 6.875,-4.20324 c 3.7812,-2.31179 10.2158,-6.88481 14.2991,-10.16229 7.2704,-5.8356 7.4557,-6.13934 8.9436,-14.66247 0.8356,-4.78689 2.6906,-12.35969 4.1222,-16.82844 1.4315,-4.46875 2.6101,-8.79301 2.6189,-9.60949 0.01,-0.81646 -2.7547,-2.99257 -6.1413,-4.83579 -4.5459,-2.4742 -6.9333,-4.85895 -9.1219,-9.11172 -2.9177,-5.66966 -3.052,-5.75436 -8.53,-5.37665 -3.785,0.26099 -6.5757,1.34046 -8.7229,3.3741 -2.289,2.16794 -5.522,3.32522 -11.7554,4.20799 -5.9532,0.84308 -10.5426,2.42645 -14.9197,5.14738 -6.0038,3.73219 -6.5671,3.84873 -11.2047,2.31819 -2.6856,-0.88635 -7.3674,-3.1871 -10.4039,-5.11277 -3.0365,-1.92569 -6.0954,-3.50124 -6.7977,-3.50124 -0.7023,0 -2.3923,2.52164 -3.7557,5.60364 -1.3633,3.082 -3.8893,6.59762 -5.6133,7.8125 -8.9399,6.29975 -8.5395,5.4753 -5.0249,10.34593 4.3687,6.05433 8.2576,13.78278 8.2576,16.4106 0,1.2117 0.7149,2.65293 1.5888,3.20272 0.8738,0.54978 2.268,2.54648 3.0982,4.43711 0.9052,2.06165 2.4866,3.4375 3.9511,3.4375 2.7599,0 7.602,6.07108 7.631,9.56796 0.01,1.26888 0.5314,3.11656 1.1574,4.10598 1.5986,2.5264 13.7656,3.68181 18.3161,1.73936 1.9978,-0.8528 4.898,-1.57591 6.4449,-1.60693 2.3476,-0.0471 2.8155,0.61507 2.8309,4.00613 0.034,7.48074 2.9687,10.72271 12.1002,13.36695 0.134,0.0387 0.134,-3.11175 0,-7.00124 z"
       id="3"
       inkscape:connector-curvature="0"
       inkscape:label="Cordillera" />
    <path
       style="fill:#000080"
       d="m 516.24438,763.33823 c 0.4127,-1.87938 1.5581,-4.08729 2.5451,-4.90648 0.9871,-0.81918 1.7947,-2.2643 1.7947,-3.21136 0,-2.63346 4.6731,-6.72195 7.6831,-6.72195 4.8753,0 15.9772,-8.47543 18.1214,-13.83421 1.0748,-2.68618 3.8867,-6.58069 6.2486,-8.65448 l 4.2943,-3.7705 -3.1737,-1.44605 c -4.0662,-1.85268 -3.9773,-3.77275 0.5921,-12.78341 2.0538,-4.05001 3.7342,-8.85889 3.7342,-10.68639 0,-2.67661 0.8698,-3.63726 4.473,-4.9402 l 4.473,-1.61746 -0.63,-8.32115 c -0.3466,-4.57664 -1.007,-10.36409 -1.4676,-12.86101 -0.4651,-2.52119 -0.307,-4.8677 0.3555,-5.27714 1.7291,-1.06869 -4.1668,-26.0811 -7.8709,-33.39086 -3.9976,-7.88888 -3.8895,-9.43589 0.8298,-11.87636 3.7815,-1.95549 3.8902,-2.23988 3.2376,-8.4696 -0.3714,-3.5454 -1.6308,-8.97743 -2.7986,-12.07118 -1.1678,-3.09375 -2.5969,-9.28125 -3.1758,-13.75 -1.9769,-15.26115 -2.5788,-16.60352 -8.7639,-19.54531 -8.3341,-3.96391 -14.9121,-11.7803 -14.9121,-17.71938 0,-2.61662 0.8258,-5.84937 1.8352,-7.1839 2.543,-3.36208 2.5141,-3.4569 -2.9903,-9.81675 -5.9547,-6.88006 -6.8385,-9.37257 -5.2998,-14.94545 1.167,-4.22656 1.0741,-4.3751 -5.6965,-9.10543 -9.9856,-6.97647 -11.5986,-8.76368 -11.5986,-12.85075 0,-3.0553 -0.5643,-3.73295 -3.3832,-4.0625 -2.9483,-0.34468 -3.8334,-1.57773 -6.8851,-9.59175 -1.9261,-5.05793 -4.6403,-10.79492 -6.0316,-12.74885 -1.7421,-2.44649 -2.2792,-4.55048 -1.7253,-6.7575 0.9326,-3.71568 -1.1951,-6.92243 -4.593,-6.92243 -2.5379,0 -12.3818,-13.99628 -12.3818,-17.60479 0,-2.95361 4.8132,-5.77657 11.5792,-6.79119 l 5.7463,-0.86172 -2.5687,-4.92833 c -1.5474,-2.96861 -2.6803,-7.78032 -2.8491,-12.10061 -0.4881,-12.49508 0.9524,-11.50995 -30.0327,-20.53861 -7.0101,-2.04266 -9.9215,-3.71049 -14.6415,-8.38766 -8.537,-8.45945 -12.5654,-9.00713 -70.9786,-9.64987 -46.9207,-0.51627 -48.1904,-0.59545 -50.9375,-3.17623 l -2.8174,-2.64678 0,4.18198 c 0,5.12108 -3.0488,8.74621 -7.3812,8.77646 -1.7841,0.0125 -6.3376,1.77907 -10.1188,3.92582 -3.7813,2.14675 -9.8333,5.5566 -13.4489,7.57743 -6.4265,3.59185 -6.5667,3.79114 -6.25,8.88667 l 0.3239,5.21243 -5.3125,0.38437 c -2.9219,0.21141 -5.3125,0.92659 -5.3125,1.5893 0,1.28785 -2.2092,4.89973 -14.5248,23.7473 -4.3023,6.58405 -8.7329,12.72677 -9.846,13.6505 -4.5976,3.81574 -5.7052,9.8789 -6.0412,33.07067 -0.2586,17.84676 -0.7573,23.47156 -2.388,26.93286 -1.1337,2.40625 -4.0981,10.5625 -6.5876,18.125 -2.4895,7.5625 -5.377,15.06261 -6.4166,16.66691 -3.4536,5.32928 -13.2034,7.80468 -39.8208,10.11013 -13.40339,1.16092 -26.03945,5.05838 -34.4543,10.62706 -5.23288,3.46296 -6.89664,7.43073 -8.22619,19.61793 l -0.76606,7.02203 4.22328,0.86127 c 2.3228,0.47368 6.34511,1.17092 8.93847,1.5494 2.82358,0.41207 5.22042,1.63216 5.97455,3.04127 1.50171,2.80598 6.47324,5.46973 12.26818,6.57331 2.31435,0.44075 7.6581,2.90687 11.875,5.48028 6.78255,4.13912 8.78147,4.73132 17.32664,5.13325 7.87953,0.37061 10.91193,-0.0648 16.45543,-2.3624 l 6.7959,-2.81675 13.5446,8.17795 c 60.6265,36.60526 59.2686,35.64435 67.1484,47.51575 5.8589,8.8268 8.6185,11.09359 18.4631,15.16599 4.5743,1.89226 10.5811,5.37847 13.3483,7.74715 3.1988,2.73807 7.1163,4.69617 10.7555,5.37605 5.4857,1.02485 7.4798,2.1571 21.1532,12.0111 3.4162,2.46193 7.5737,4.37732 9.5013,4.37732 1.885,0 6.0671,1.40355 9.2934,3.119 3.2263,1.71545 8.232,3.44203 11.1237,3.83684 5.7174,0.78061 16.1291,4.16125 17.1326,5.5629 3.2111,4.4853 11.0525,12.95656 12.9165,13.9542 1.8343,0.98167 3.0507,0.58424 5.6482,-1.84548 5.6488,-5.2841 8.0062,-5.27198 17.3405,0.0891 4.6584,2.67552 10.4385,5.61102 12.8448,6.52334 2.4062,0.91232 5.812,2.97531 7.5684,4.58442 1.7564,1.60911 4.6889,2.92565 6.5168,2.92565 4.6203,0 17.5282,12.33185 24.6648,23.56414 l 5.625,8.85322 4.0173,-4.58026 c 2.2095,-2.51914 4.3551,-6.11794 4.7679,-7.99731 z"
       id="15"
       inkscape:connector-curvature="0"
       inkscape:label="Presidente Hayes">
      <title
         id="title4565">Presidente Hayes</title>
    </path>
    <path
       style="fill:#000080"
       d="m 644.33418,733.15889 c 1.8595,-4.00226 5.7934,-5.78895 17.6854,-8.03239 2.8059,-0.52934 3.7343,-1.89164 6.0919,-8.93879 3.5489,-10.60834 4.6615,-12.68927 6.7844,-12.68927 2.0446,0 8.4046,9.95534 10.5895,16.57569 0.8485,2.57087 1.7882,4.67431 2.0884,4.67431 0.3001,0 3.5259,-2.42745 7.1685,-5.39434 3.6425,-2.96689 11.2277,-7.55529 16.8559,-10.19644 l 10.233,-4.80208 -2.9431,-3.86607 c -1.6188,-2.12635 -4.172,-6.11607 -5.6738,-8.86607 -1.5017,-2.75 -3.9735,-6.81795 -5.4928,-9.0399 -1.5193,-2.22195 -5.5748,-8.55452 -9.0123,-14.0724 -3.4375,-5.51786 -7.163,-10.32451 -8.2788,-10.68144 -1.3352,-0.42712 -2.2474,-2.58941 -2.6686,-6.32564 -0.3996,-3.54582 -1.6323,-6.60126 -3.2837,-8.13983 -3.0456,-2.83743 -3.1389,-3.44793 -1.2562,-8.22192 0.7633,-1.93538 1.3664,-4.96047 1.3403,-6.72243 -0.034,-2.28153 2.4061,-5.79214 8.4776,-12.19752 l 8.5252,-8.99395 0.4479,-14.10865 c 0.3418,-10.76943 0.9654,-14.89853 2.6345,-17.44601 1.2027,-1.83554 2.1868,-5.65905 2.1868,-8.49667 0,-3.26658 0.9171,-6.32528 2.5,-8.33755 1.5206,-1.93314 2.5,-5.07098 2.5,-8.00967 0,-4.45701 -0.271,-4.83142 -3.4963,-4.83142 -2.432,0 -4.9826,1.52209 -8.3787,5 -2.7498,2.81606 -6.0746,5 -7.6118,5 -2.2877,0 -2.8698,-0.93614 -3.5969,-5.78481 -0.4771,-3.18165 -1.1524,-6.52743 -1.5007,-7.43505 -0.3483,-0.90764 1.6657,-4.04279 4.4756,-6.967 2.8098,-2.92422 5.1088,-5.80292 5.1088,-6.39713 0,-2.51096 -2.8273,-6.02103 -6.2936,-7.81354 -5.8738,-3.03746 -19.0999,-0.34931 -25.1981,5.12141 -2.5391,2.27788 -7.0391,4.7654 -10,5.52781 -2.9608,0.76242 -7.9146,2.19477 -11.0083,3.18302 -5.0053,1.59885 -23.1657,1.81733 -30,0.36093 -1.0313,-0.21977 -8.3438,0.0151 -16.25,0.52202 -12.5788,0.80645 -21.7425,2.33102 -43.4555,7.22973 -6.9638,1.57112 -11.1161,1.51983 -14.2857,-0.17645 -2.9526,-1.58018 -4.7072,0.14911 -4.7397,4.67111 -0.023,3.14744 8.0954,10.88629 14.0155,13.36091 2.2497,0.94038 4.8672,2.64649 5.8167,3.79135 2.0105,2.42434 4.1556,11.51175 4.6161,19.55569 0.1771,3.09375 1.5581,9 3.0689,13.125 1.5107,4.125 2.8237,10.5047 2.9177,14.17711 0.1504,5.875 -0.2384,7.00401 -3.2369,9.39836 -3.157,2.52085 -3.2829,2.96228 -1.7098,5.99433 2.4615,4.74457 5.3738,14.31595 6.977,22.9302 0.7677,4.125 2.0427,8.80034 2.8332,10.38964 1.0802,2.17137 1.0818,3.45922 0.01,5.18107 -1.0058,1.61068 -1.1197,5.37931 -0.3832,12.68526 1.189,11.79453 0.4601,14.81304 -4.1761,17.29428 -1.7956,0.96096 -3.2647,2.50652 -3.2647,3.4346 0,0.92806 -1.698,4.86939 -3.7733,8.7585 l -3.7734,7.0711 3.1484,3.28617 c 3.4,3.54887 4.088,6.97149 1.5858,7.88897 -2.2794,0.83577 -0.1537,2.66226 7.6201,6.54762 l 6.6826,3.33995 7.6924,-3.90087 c 4.4473,-2.25524 10.5928,-4.20972 14.5674,-4.63297 5.1607,-0.54953 7.5149,-1.48441 9.4412,-3.74922 2.0483,-2.40838 4.1984,-3.16958 10.6562,-3.77261 8.8541,-0.82682 9.4431,-0.50793 13.6317,7.37991 1.8809,3.54186 9.0209,9.72284 11.1433,9.64655 0.414,-0.0149 1.5964,-1.84301 2.6276,-4.0625 z"
       id="2"
       inkscape:connector-curvature="0"
       inkscape:label="San Pedro" />
    <path
       style="fill:#000080"
       d="m 734.68748,696.27526 c 4.8891,-7.91921 13.1309,-15.20638 18.6123,-16.45641 2.9751,-0.67847 10.1906,-3.2887 16.0344,-5.80048 8.5039,-3.65522 12.1222,-4.54675 18.125,-4.46603 4.125,0.0555 10.2739,-0.72146 13.6643,-1.72652 8.2201,-2.43678 7.9553,-2.51631 10.1857,3.05823 2.1644,5.40914 4.9808,6.99297 14.8843,8.37025 5.3195,0.7398 7.2068,1.83185 12.8628,7.4428 5.9007,5.85383 7.3434,6.64992 13.1407,7.2509 15.2014,1.57589 21.7146,2.89451 24.9548,5.05218 2.9721,1.97919 4.2008,2.10155 8.991,0.89537 3.0516,-0.76841 7.2302,-1.39711 9.2857,-1.39711 4.9029,0 5.525,-2.10454 5.7756,-19.53699 0.1962,-13.65376 0.2735,-14.00126 4.165,-18.7223 5.4273,-6.58424 4.9138,-16.03354 -1.2264,-22.56947 -4.2873,-4.56364 -3.9825,-13.69178 0.6408,-19.18862 l 3.5744,-4.24971 -3.5496,-2.83034 c -1.9523,-1.55667 -5.1582,-3.18363 -7.1243,-3.61547 -2.36,-0.51834 -4.0937,-2.0193 -5.1018,-4.41685 -2.2614,-5.37833 -16.2343,-14.54956 -24.7825,-16.2663 -6.6696,-1.33944 -7.1859,-1.25381 -11.2829,1.87119 -2.3615,1.80117 -5.6468,3.2948 -7.3006,3.31916 -1.6539,0.0244 -4.4133,0.84817 -6.132,1.8307 -1.7188,0.98252 -4.6345,1.80635 -6.4795,1.8307 -2.7168,0.0359 -3.4297,0.69775 -3.75,3.4818 -0.3668,3.18769 -0.8232,3.44589 -6.28,3.55294 -3.2365,0.0635 -6.6909,0.78471 -7.6765,1.6027 -0.9857,0.818 -3.9626,1.3822 -6.6155,1.25377 -2.653,-0.12841 -7.4764,0.81153 -10.7187,2.08875 -5.8502,2.30448 -5.932,2.30159 -10.6983,-0.37725 -2.9448,-1.65504 -5.8861,-2.41625 -7.6024,-1.96745 -1.9314,0.50509 -3.7871,-0.18995 -5.9858,-2.24197 -5.6477,-5.27084 -7.9433,-11.40253 -7.9433,-21.21667 0,-10.2372 -1.8555,-17.66155 -5.1617,-20.65358 -2.1289,-1.92667 -2.8902,-1.81217 -11.6364,1.75006 -5.1472,2.09636 -10.4619,3.52304 -11.8105,3.17036 -1.8094,-0.47316 -2.9722,0.3647 -4.4367,3.19671 -1.0916,2.11085 -5.3822,6.66532 -9.5346,10.12103 -6.0445,5.0303 -8.4716,6.28691 -12.1725,6.30224 -7.5964,0.0315 -8.3203,1.12248 -8.8232,13.29841 -0.4252,10.29575 -0.6712,11.12861 -4.375,14.81514 -8.1644,8.12633 -12.0494,13.13197 -12.0494,15.52518 0,1.36098 -0.6575,3.91753 -1.4611,5.68124 -1.2616,2.76895 -1.091,3.55156 1.25,5.73251 1.7946,1.67198 2.7111,4.02069 2.7111,6.94823 0,3.20712 0.9902,5.41264 3.6031,8.02561 1.9818,1.98174 6.1559,7.98535 9.2759,13.34135 3.12,5.356 6.983,11.39288 8.5844,13.41528 1.6013,2.02238 3.5893,5.26106 4.4177,7.19705 0.8284,1.93599 2.9729,5.44292 4.7656,7.7932 2.9139,3.82041 3.6221,4.14675 6.6829,3.07976 1.8829,-0.6564 4.3686,-2.72428 5.5237,-4.59528 z"
       id="14"
       inkscape:connector-curvature="0"
       inkscape:label="Canindeyu" />
    <path
       style="fill:#000080"
       d="m 135.70418,580.68594 c 0.22602,-12.36131 2.43282,-18.50185 8.24065,-22.93008 2.8796,-2.19557 7.9421,-4.95727 11.25,-6.13712 3.30789,-1.17984 8.7666,-3.25853 12.13045,-4.61931 3.36386,-1.36078 7.43946,-2.22118 9.0569,-1.91198 3.94902,0.7549 28.4927,-2.13587 35.1543,-4.1405 2.9301,-0.88172 5.8861,-2.27637 6.569,-3.09922 0.6829,-0.82285 3.5039,-8.18494 6.2688,-16.36019 2.7649,-8.17526 5.5562,-15.81169 6.203,-16.96985 2.4432,-4.37486 3.6359,-18.09351 2.9038,-33.39906 -0.8214,-17.17218 0.2544,-21.88248 6.5942,-28.87019 3.6091,-3.97796 19.2589,-27.54935 19.2589,-29.00734 0,-0.60346 1.125,-2.30474 2.5,-3.78062 1.375,-1.4759 2.5,-3.98363 2.5,-5.57274 0,-2.5398 0.6077,-2.8893 5.0238,-2.8893 4.7415,0 4.9795,-0.17654 4.2354,-3.14124 -1.2296,-4.89939 -0.801,-5.2481 22.4764,-18.28591 4.7358,-2.65256 9.8788,-4.82285 11.4288,-4.82285 3.0107,0 4.3356,-2.12315 4.3356,-6.94806 0,-4.66883 -8.2051,-8.05194 -19.5284,-8.05194 -4.9824,0 -10.5933,-0.58338 -12.4686,-1.2964 -2.3644,-0.89894 -5.3645,-0.89061 -9.7853,0.0271 -7.2745,1.51019 -32.6743,-0.18736 -34.8136,-2.32668 -0.891,-0.89093 0.01,-10.93405 2.8835,-32.28613 2.2972,-17.04611 4.082,-34.08668 3.9663,-37.86794 -0.2504,-8.18272 0.1472,-8.9156 6.6211,-12.20353 2.75,-1.39667 6.6065,-4.03191 8.5701,-5.85613 2.9866,-2.77466 3.4397,-3.97037 2.7724,-7.31604 -0.4387,-2.19961 -1.2152,-10.85925 -1.7256,-19.24363 -0.8101,-13.30605 -1.2818,-15.62087 -3.71,-18.20557 -1.53,-1.62865 -2.7819,-3.66717 -2.7819,-4.53003 0,-0.86286 -1.8281,-5.8891 -4.0625,-11.16944 -3.5445,-8.37654 -4.0619,-10.99522 -4.0581,-20.53896 l 0,-10.93836 -6.2544,-1.77308 C 202.20028,164.22808 4.9524049,112.22233 3.8753449,112.63766 c -0.78131,0.30128 -9.2892,13.13384 -18.9064099,28.51677 l -17.48641,27.96899 -0.85228,10 c -0.46875,5.5 -0.90346,19.5625 -0.96602,31.25 l -0.11375,21.25 -22.96169,74.375 -22.96168,74.375 2.85829,2.5 c 1.57205,1.375 3.49258,3.76379 4.26783,5.30841 0.77525,1.54464 3.78137,4.00399 6.68026,5.46524 2.89889,1.46125 7.03406,4.55682 9.18928,6.87907 2.96673,3.19666 4.94872,4.22228 8.15937,4.22228 2.33244,0 5.5197,0.89579 7.08281,1.99064 3.00314,2.10347 11.86469,19.9909 13.37365,26.9953 1.30225,6.04486 3.9242,10.61291 6.47802,11.28624 3.46517,0.91361 16.0418999,18.35935 18.3567799,25.46347 2.21789,6.80646 4.41752003,9.24136 16.7903001,18.58603 4.35022,3.28555 9.97522,8.68085 12.5,11.98953 2.84564,3.72919 6.49099,6.79797 9.59049,8.0736 2.75,1.13179 6.40625,3.35198 8.125,4.93377 1.71875,1.58177 4.34631,3.50326 5.83904,4.26997 1.49271,0.76671 4.02396,3.72256 5.625,6.56858 2.48356,4.4148 4.07341,5.59148 10.8283,8.01431 4.35453,1.56186 9.20857,4.05281 10.78675,5.53544 1.57818,1.48262 6.56886,3.80553 11.0904,5.16202 8.7817,2.63458 10.13616,3.93658 15.896395,15.28066 2.83552,5.58424 6.55453,9.4507 20.05527,20.85044 5.28083,4.45901 9.75739,7.37614 11.44134,7.4557 0.51563,0.0244 0.9915,-2.90882 1.0575,-6.5182 z"
       id="17"
       inkscape:connector-curvature="0"
       inkscape:label="Boqueron">
      <title
         id="title4563">Boqueron</title>
    </path>
    <path
       style="fill:#000080"
       d="m 723.65148,576.60383 c 3.1707,-2.5982 7.3166,-7.03169 9.2131,-9.85219 2.8768,-4.27861 4.1643,-5.14854 7.7713,-5.25095 2.3778,-0.0675 7.1358,-1.26476 10.5733,-2.66055 l 6.25,-2.5378 0.8533,-12.33945 c 0.4694,-6.7867 1.2362,-14.77884 1.7042,-17.76033 0.5066,-3.22828 0.3304,-5.94116 -0.4356,-6.70723 -0.74,-0.73994 -1.0003,-4.05827 -0.613,-7.81159 0.7211,-6.9865 -0.9594,-11.9353 -4.0529,-11.9353 -3.1778,0 -6.831,-4.78795 -6.831,-8.95268 0,-2.17397 -1.4823,-6.48196 -3.2939,-9.57331 -2.9786,-5.08245 -3.173,-6.17016 -2.0305,-11.35982 0.6949,-3.15655 0.9969,-7.79457 0.6711,-10.3067 -0.3257,-2.51214 0.5872,-9.35873 2.0288,-15.21465 2.841,-11.5405 2.6601,-13.01028 -2.4119,-19.59284 -4.777,-6.19954 -7.2634,-11.44329 -8.7805,-18.51746 -0.9767,-4.55427 -2.0948,-6.49664 -4.3243,-7.51248 -1.6539,-0.75353 -4.2094,-3.72695 -5.679,-6.60757 l -2.672,-5.2375 -20.417,0.72387 c -20.244,0.71774 -20.4443,0.69865 -23.6289,-2.25281 -1.7666,-1.63718 -3.2119,-3.56604 -3.2119,-4.28636 0,-0.72033 -0.9844,-1.31179 -2.1875,-1.31437 -3.9625,-0.009 -10.1684,-4.81237 -12.7473,-9.86747 -2.229,-4.36915 -3.207,-5.0709 -8.0867,-5.80266 -6.895,-1.03397 -7.8326,-0.45608 -10.9106,6.72465 -3.801,8.86727 -12.0521,14.96596 -15.5354,11.4827 -1.7427,-1.74275 -8.578,0.3597 -9.0448,2.78206 -0.2968,1.54052 1.0166,2.19501 5.625,2.80302 10.6895,1.4103 13.0435,2.08514 13.7567,3.94367 0.9614,2.50523 -3.2975,10.16957 -7.2158,12.98582 -3.9657,2.85029 -6.7552,13.25296 -5.9106,22.04224 0.3214,3.34457 2.0856,9.07019 3.9206,12.72356 3.9623,7.88869 4.1678,11.29296 0.9301,15.40896 -1.3234,1.68247 -2.0265,3.63442 -1.5625,4.33768 1.0966,1.66185 11.8571,4.34709 12.8134,3.19755 0.4037,-0.48515 1.4398,-3.41335 2.3026,-6.5071 2.5445,-9.12404 4.4452,-11.25 10.0578,-11.25 2.6936,0 5.2808,-0.62031 5.7494,-1.37848 1.4625,-2.36647 13.4721,-7.34651 17.7472,-7.35931 6.5029,-0.0195 25.4763,13.45301 27.9614,19.85462 0.9004,2.31935 0.4507,4.35115 -2.0008,9.03948 -1.7392,3.32623 -3.1622,7.69763 -3.1622,9.71423 0,5.64289 -14.4073,33.05305 -20.0554,38.15574 l -4.7751,4.31406 8.417,-0.70565 c 12.1742,-1.02065 18.4136,2.72747 20.6592,12.41035 0.6653,2.86862 -0.028,4.21652 -4.2974,8.36025 -4.6612,4.52347 -5.0186,5.32421 -4.2367,9.49206 l 0.854,4.55185 4.5297,-4.31954 c 3.7045,-3.53261 5.815,-4.46081 11.5852,-5.09501 5.3031,-0.58286 7.2152,-0.35941 7.6983,0.89961 0.9397,2.44867 -2.2971,16.81913 -4.3491,19.30894 -0.9663,1.17249 -1.6301,4.10055 -1.4752,6.5068 0.155,2.40625 -0.4266,5.5 -1.2923,6.875 -0.8658,1.375 -1.9648,3.55876 -2.4424,4.85279 -0.7871,2.133 -0.3497,2.29435 4.6821,1.7272 3.9918,-0.44994 7.1692,-1.9521 11.3154,-5.3496 z"
       id="13"
       inkscape:connector-curvature="0"
       inkscape:label="Amambay" />
    <path
       style="fill:#000080"
       d="m 553.59928,539.2298 c 17.5592,-4.88312 60.5189,-10.51391 62.0303,-8.1304 0.3687,0.58153 5.7125,1.16734 11.875,1.30182 14.3942,0.31408 31.2873,-4.5369 36.222,-10.40144 1.7092,-2.03123 3.1076,-4.29014 3.1076,-5.0198 0,-0.72965 2.4965,-3.63961 5.5478,-6.46659 7.0559,-6.53715 18.0001,-27.10531 20.3277,-38.20341 0.9302,-4.4349 2.52,-8.9792 3.5329,-10.09843 3.9394,-4.35303 1.4211,-7.72538 -12.9354,-17.32232 l -7.902,-5.28226 -6.3109,2.09616 c -3.4711,1.15289 -7.3343,3.11946 -8.585,4.37016 -1.3113,1.31134 -4.555,2.4383 -7.6621,2.66209 -5.1001,0.36732 -5.4663,0.65527 -6.8521,5.38806 -0.8052,2.75 -1.7909,6.50939 -2.1904,8.35419 -0.3995,1.8448 -1.8558,3.71267 -3.2363,4.15084 -3.7556,1.19196 -16.099,-0.67339 -18.1718,-2.74615 -2.3623,-2.36233 -2.3259,-8.4016 0.063,-10.38388 2.7041,-2.24424 2.3207,-6.10821 -1.3641,-13.74644 -6.7084,-13.90577 -4.7949,-29.4514 4.9227,-39.99376 l 5.1849,-5.62497 -5.6217,-0.98099 c -3.092,-0.53954 -8.2285,-1.80738 -11.4146,-2.8174 -3.186,-1.01004 -6.8422,-1.84321 -8.125,-1.8515 -1.2827,-0.009 -4.7184,-1.3794 -7.6348,-3.04693 -6.7955,-3.88543 -15.7413,-5.30526 -19.7864,-3.14038 -2.5608,1.37052 -3.3557,1.30047 -5.3098,-0.4679 -2.4838,-2.24775 -10.2263,-2.87595 -10.2263,-0.82973 0,1.62132 -6.978,1.61731 -10.0107,-0.006 -1.6299,-0.87229 -3.3673,-0.79059 -5.6897,0.26755 -2.9557,1.34671 -3.603,1.20248 -5.5843,-1.24425 -1.2448,-1.53681 -3.6472,-2.76705 -5.4044,-2.76705 -1.7398,0 -3.511,-0.5625 -3.9359,-1.25 -0.4249,-0.6875 -3.5571,-1.25 -6.9606,-1.25 -5.7998,0 -6.4031,-0.31074 -9.6137,-4.95256 -3.8264,-5.53188 -7.2053,-6.32024 -13.3516,-3.11513 -3.7835,1.97297 -20.059,1.96014 -24.7442,-0.0195 -3.2341,-1.36655 -4.8621,3.92016 -3.2107,10.42635 0.7205,2.83846 1.916,5.16084 2.6567,5.16084 2.301,0 13.4806,12.78626 13.0158,14.8864 -0.2421,1.09374 -1.2347,1.80636 -2.2058,1.58362 -1.3107,-0.30061 -1.211,0.2079 0.3867,1.97343 2.3739,2.62304 2.8187,5.99727 0.9434,7.15625 -1.7439,1.07782 -0.2349,7.78035 3.4211,15.19466 4.2683,8.65634 3.383,10.45564 -5.1447,10.45564 -3.9041,0 -7.2933,0.66027 -8.0203,1.5625 -1.3908,1.72592 -0.077,6.40337 2.1925,7.80601 0.7781,0.48089 1.9286,2.22595 2.5566,3.87791 0.7508,1.97459 2.1308,3.00358 4.0284,3.00358 3.5561,0 7.7043,6.36464 6.5397,10.03387 -0.4785,1.50762 0.18,4.11302 1.6549,6.54757 1.3474,2.22396 3.7021,7.52832 5.2328,11.78748 2.5369,7.05892 3.1298,7.77764 6.703,8.125 3.6473,0.35457 3.9468,0.7507 4.3044,5.69358 0.2114,2.92187 0.8588,5.3125 1.4387,5.3125 0.5798,0 4.5388,2.61937 8.7977,5.82082 l 7.7434,5.82084 -0.8352,6.68469 c -0.7938,6.35324 -0.6359,6.88397 3.184,10.70389 2.2105,2.21056 4.7772,5.83336 5.7036,8.05067 1.576,3.77178 4.5953,6.54345 7.2236,6.63108 0.6271,0.0209 4.0021,-0.75788 7.5,-1.73063 z"
       id="1"
       inkscape:connector-curvature="0"
       inkscape:label="Concepcion" />
    <path
       style="fill:#000080"
       d="m 479.68348,390.15578 c -1.9109,-2.02718 -4.3521,-4.01458 -5.425,-4.41645 -3.6333,-1.36094 -6.3556,-15.5443 -3.7681,-19.63195 0.7722,-1.2199 0.3167,-2.41494 -1.4731,-3.86419 l -2.5911,-2.0981 3.3457,-13.3518 c 1.8401,-7.34349 3.0111,-14.68465 2.6022,-16.31369 -0.4088,-1.62905 0.078,-4.56936 1.0816,-6.53404 1.3351,-2.61323 1.4694,-4.12543 0.5003,-5.63338 -0.9902,-1.54071 -0.7847,-2.88554 0.8139,-5.32524 1.6996,-2.59397 1.8486,-3.80589 0.7257,-5.90395 -0.777,-1.45199 -1.0707,-4.35037 -0.6526,-6.44086 0.4853,-2.42685 0.1323,-4.5181 -0.9765,-5.7848 -3.711,-4.23938 -3.4719,-7.00104 1.1274,-13.02458 3.9017,-5.10991 8.0903,-14.03635 8.0903,-17.24147 0,-0.60107 -1.125,-1.09284 -2.5,-1.09284 -3.2398,0 -3.4332,-6.16379 -0.3413,-10.88255 4.7882,-7.30771 4.2633,-33.85395 -0.7764,-39.2634 -3.303,-3.54535 -3.3657,-7.87062 -0.1607,-11.0757 3.1001,-3.10005 2.0873,-6.01469 -2.2649,-6.51803 -2.5967,-0.30031 -3.4197,-1.15142 -3.7306,-3.85773 -0.3348,-2.91402 0.2245,-3.6897 3.4775,-4.82373 3.1153,-1.08601 3.5931,-1.69269 2.4333,-3.09009 -0.7936,-0.95632 -2.4531,-1.73877 -3.6877,-1.73877 -4.0543,0 -6.1992,-1.47355 -6.1992,-4.25874 0,-1.50769 -0.5024,-3.27564 -1.1165,-3.92876 -1.5121,-1.60818 -3.8835,-13.32905 -3.8835,-19.19427 0,-3.51383 -1.1445,-6.25766 -4.375,-10.48849 -3.0022,-3.93184 -4.375,-7.05235 -4.375,-9.94468 0,-3.2338 -0.8729,-4.86027 -3.75,-6.98741 -3.7156,-2.74703 -4.9279,-6.82216 -2.4796,-8.33525 0.6987,-0.43183 0.8994,-1.38543 0.4459,-2.1191 -0.4534,-0.73368 -1.2518,-4.77294 -1.7741,-8.97613 -0.5224,-4.2032 -1.9548,-11.110501 -3.1832,-15.349591 -2.159,-7.45043 -2.1559,-7.87943 0.093,-12.86626 2.0087,-4.454463 2.0837,-5.395763 0.5497,-6.893951 -0.9771,-0.954312 -26.4304,-14.711375 -56.5628,-30.571237 l -54.7863,-28.836125 -21.0613,0 c -11.5837,0 -34.5039,-1.124925 -50.9338,-2.499838 l -29.8726,-2.4998369 -23.6549,7.5455129 c -22.11521,7.054375 -28.80866,8.472262 -102.83454,21.783637 -43.548795,7.830975 -79.466075,14.524563 -79.816145,14.87465 -0.35009,0.350088 -5.022,12.8055 -10.38204,27.678718 -6.3531201,17.62887 -9.2454101,27.221111 -8.3088501,27.556191 0.79018,0.28271 55.1086201,14.84963 120.7076651,32.37097 65.59904,17.52133 119.79201,32.378 120.42881,33.01484 0.7106,0.71051 0.6022,3.83455 -0.2803,8.08559 -1.7225,8.29733 -0.8393,13.82043 3.9008,24.39358 1.9551,4.36097 3.5547,8.61105 3.5547,9.44465 0,0.83359 1.4062,3.42169 3.125,5.75133 2.7879,3.7788 3.1266,5.45674 3.1398,15.55535 0.01,6.22581 0.8453,14.4134 1.8602,18.19465 1.0149,3.78125 1.852,7.86 1.8602,9.06389 0.02,2.9979 -8.7183,11.23511 -14.8543,14.00208 -4.9154,2.21653 -5.0205,2.39534 -4.3587,7.41517 0.3739,2.83703 -1.0486,17.7949 -3.1721,33.35376 -2.1175,15.51545 -3.8501,29.61972 -3.8501,31.34282 0,3.0285 0.3853,3.17433 11.5625,4.37578 6.3594,0.68359 13.2323,0.78645 15.2732,0.2286 2.0408,-0.55785 11.0408,-0.65282 20,-0.21105 14.418,0.71095 17.1429,1.21371 23.7198,4.3765 4.0868,1.96531 8.6961,4.76226 10.243,6.21545 2.7156,2.55121 4.1593,2.65814 41.9445,3.10664 21.5226,0.25547 47.007,1.08722 56.632,1.84835 l 17.5,1.38385 5.3551,6.06197 c 4.7888,5.42098 6.5072,6.40749 16.25,9.32933 5.9922,1.79704 13.9886,4.23191 17.7699,5.41082 3.7812,1.17893 7.0322,2.06377 7.2243,1.96633 0.1921,-0.0974 -1.2142,-1.83578 -3.125,-3.86295 z"
       id="16"
       inkscape:connector-curvature="0"
       inkscape:label="Alto Paraguay">
      <title
         id="title4561">Alto Paraguay</title>
    </path>
  </g>
</svg>
